<svg xmlns="http://www.w3.org/2000/svg" xmlns:xlink="http://www.w3.org/1999/xlink" width="350" zoomAndPan="magnify" viewBox="0 0 262.5 74.999997" height="100" preserveAspectRatio="xMidYMid meet" version="1.0"><defs><g/><clipPath id="31103e1aca"><path d="M 0 0.0703125 L 262 0.0703125 L 262 74.925781 L 0 74.925781 Z M 0 0.0703125 " clip-rule="nonzero"/></clipPath><clipPath id="9158a22123"><path d="M 40.25 3.207031 L 99.5 3.207031 L 99.5 67.707031 L 40.25 67.707031 Z M 40.25 3.207031 " clip-rule="nonzero"/></clipPath></defs><g clip-path="url(#31103e1aca)"><path fill="#ffffff" d="M 0 0.0703125 L 262.5 0.0703125 L 262.5 82.570312 L 0 82.570312 Z M 0 0.0703125 " fill-opacity="1" fill-rule="nonzero"/><path fill="#ffffff" d="M 0 0.0703125 L 262.5 0.0703125 L 262.5 75.070312 L 0 75.070312 Z M 0 0.0703125 " fill-opacity="1" fill-rule="nonzero"/><path fill="#ffffff" d="M 0 0.0703125 L 262.5 0.0703125 L 262.5 75.070312 L 0 75.070312 Z M 0 0.0703125 " fill-opacity="1" fill-rule="nonzero"/></g><g clip-path="url(#9158a22123)"><path fill="#2a6672" d="M 59.21875 3.207031 C 58.863281 3.207031 58.515625 3.242188 58.167969 3.3125 C 57.824219 3.378906 57.488281 3.480469 57.164062 3.617188 C 56.835938 3.75 56.527344 3.914062 56.234375 4.109375 C 55.941406 4.304688 55.671875 4.527344 55.421875 4.777344 C 55.171875 5.023438 54.949219 5.292969 54.753906 5.585938 C 54.558594 5.878906 54.394531 6.1875 54.257812 6.511719 C 54.125 6.835938 54.019531 7.171875 53.953125 7.515625 C 53.882812 7.859375 53.847656 8.207031 53.847656 8.558594 L 53.847656 26.519531 C 55.253906 24.121094 57.21875 22.035156 59.058594 20.082031 C 61.675781 17.292969 64.175781 14.640625 64.585938 11.667969 L 64.585938 8.558594 C 64.585938 8.207031 64.550781 7.859375 64.480469 7.515625 C 64.414062 7.171875 64.3125 6.835938 64.175781 6.511719 C 64.042969 6.1875 63.875 5.878906 63.679688 5.585938 C 63.484375 5.292969 63.261719 5.023438 63.011719 4.777344 C 62.761719 4.527344 62.492188 4.304688 62.199219 4.109375 C 61.90625 3.914062 61.597656 3.75 61.269531 3.617188 C 60.945312 3.480469 60.609375 3.378906 60.265625 3.3125 C 59.917969 3.242188 59.570312 3.207031 59.21875 3.207031 Z M 76.675781 57.101562 C 75.882812 57.101562 75.09375 57.023438 74.316406 56.871094 C 73.539062 56.714844 72.78125 56.484375 72.050781 56.183594 C 71.316406 55.878906 70.621094 55.507812 69.960938 55.070312 C 69.300781 54.628906 68.691406 54.128906 68.128906 53.570312 C 67.566406 53.011719 67.066406 52.402344 66.625 51.746094 C 66.183594 51.085938 65.8125 50.394531 65.507812 49.664062 C 65.203125 48.929688 64.972656 48.179688 64.816406 47.402344 C 64.660156 46.625 64.582031 45.84375 64.582031 45.050781 L 64.582031 42.105469 C 62.839844 43.191406 59.597656 47.675781 54.0625 48.566406 C 55.359375 58.007812 63.351562 66.292969 73.746094 67.625 C 79.410156 66.316406 82.617188 62.507812 84.355469 59.371094 C 85.726562 56.84375 86.609375 54.15625 87.003906 51.308594 C 86.464844 52.191406 85.820312 52.996094 85.074219 53.714844 C 84.328125 54.433594 83.503906 55.046875 82.601562 55.554688 C 81.695312 56.0625 80.742188 56.445312 79.738281 56.707031 C 78.734375 56.972656 77.714844 57.101562 76.675781 57.101562 Z M 76.675781 22.296875 C 71.746094 22.296875 67.839844 23.707031 64.585938 25.65625 L 64.585938 16.496094 C 63.464844 18.164062 61.96875 19.746094 60.441406 21.367188 C 57.40625 24.59375 54.277344 27.914062 53.847656 32.222656 L 53.847656 34.527344 C 51.109375 36.828125 48.730469 38.183594 45.453125 38.28125 C 45.101562 38.296875 44.757812 38.34375 44.417969 38.425781 C 44.078125 38.507812 43.75 38.621094 43.433594 38.769531 C 43.117188 38.914062 42.816406 39.089844 42.53125 39.292969 C 42.25 39.5 41.988281 39.726562 41.75 39.984375 C 41.511719 40.238281 41.300781 40.515625 41.117188 40.8125 C 40.933594 41.109375 40.777344 41.417969 40.65625 41.746094 C 40.53125 42.070312 40.441406 42.40625 40.386719 42.75 C 40.328125 43.09375 40.304688 43.441406 40.316406 43.789062 C 40.324219 44.136719 40.371094 44.480469 40.449219 44.820312 C 40.527344 45.160156 40.636719 45.488281 40.777344 45.808594 C 40.921875 46.125 41.09375 46.429688 41.292969 46.710938 C 41.496094 46.996094 41.722656 47.261719 41.976562 47.5 C 42.230469 47.742188 42.503906 47.957031 42.796875 48.140625 C 43.09375 48.328125 43.402344 48.488281 43.730469 48.613281 C 44.054688 48.738281 44.390625 48.835938 44.734375 48.894531 C 45.078125 48.957031 45.425781 48.984375 45.773438 48.980469 C 48.007812 48.917969 50.179688 48.519531 52.289062 47.78125 C 52.289062 47.78125 52.339844 47.761719 52.429688 47.730469 C 52.457031 47.722656 52.484375 47.714844 52.511719 47.703125 C 52.582031 47.675781 52.65625 47.652344 52.722656 47.621094 C 52.792969 47.59375 52.835938 47.582031 52.890625 47.558594 C 52.984375 47.523438 53.074219 47.488281 53.164062 47.445312 L 53.300781 47.390625 C 53.367188 47.367188 53.429688 47.339844 53.492188 47.3125 C 53.644531 47.25 53.792969 47.1875 53.941406 47.121094 C 58.199219 45.273438 64.515625 39.257812 66.078125 37.90625 L 66.148438 37.847656 C 69.59375 34.792969 72.390625 32.992188 76.671875 32.992188 C 77.390625 32.992188 78.101562 33.054688 78.808594 33.183594 C 79.515625 33.308594 80.203125 33.496094 80.875 33.746094 C 81.550781 33.996094 82.195312 34.304688 82.8125 34.667969 C 83.429688 35.03125 84.011719 35.445312 84.554688 35.914062 C 85.101562 36.378906 85.597656 36.890625 86.050781 37.445312 C 86.503906 38 86.902344 38.589844 87.25 39.214844 C 87.597656 39.84375 87.886719 40.496094 88.121094 41.171875 C 88.351562 41.847656 88.519531 42.542969 88.628906 43.25 C 88.628906 43.253906 88.628906 43.261719 88.628906 43.269531 C 89.6875 47.914062 89.097656 54.679688 86.011719 60.269531 C 84.609375 62.804688 82.34375 65.730469 78.789062 67.699219 C 90.386719 66.632812 99.496094 56.878906 99.496094 45.046875 C 99.5 32.503906 89.261719 22.296875 76.675781 22.296875 Z M 76.675781 22.296875 " fill-opacity="1" fill-rule="nonzero"/></g><g fill="#2a6672" fill-opacity="1"><g transform="translate(107.747607, 49.424043)"><g><path d="M 0.886719 0 L 7.675781 0 C 10.554688 0 12.160156 -1.210938 12.160156 -3.394531 C 12.160156 -4.929688 11.304688 -5.933594 9.804688 -6.207031 L 9.804688 -6.242188 C 11.171875 -6.582031 11.9375 -7.503906 11.9375 -8.867188 C 11.9375 -11.015625 10.335938 -12.210938 7.433594 -12.210938 L 0.886719 -12.210938 Z M 4.621094 -7.28125 L 4.621094 -9.566406 L 6.839844 -9.566406 C 7.726562 -9.566406 8.21875 -9.175781 8.21875 -8.457031 C 8.21875 -7.707031 7.726562 -7.28125 6.839844 -7.28125 Z M 4.621094 -2.644531 L 4.621094 -5.082031 L 6.976562 -5.082031 C 7.914062 -5.082031 8.441406 -4.636719 8.441406 -3.804688 C 8.441406 -3.070312 7.914062 -2.644531 6.976562 -2.644531 Z M 4.621094 -2.644531 "/></g></g></g><g fill="#2a6672" fill-opacity="1"><g transform="translate(123.346966, 49.424043)"><g><path d="M 0.886719 0 L 4.621094 0 L 4.621094 -12.210938 L 0.886719 -12.210938 Z M 0.886719 0 "/></g></g></g><g fill="#2a6672" fill-opacity="1"><g transform="translate(131.923042, 49.424043)"><g><path d="M 6.089844 0.425781 C 9.449219 0.425781 11.851562 -1.058594 11.851562 -3.785156 C 11.851562 -5.953125 10.523438 -7.113281 7.519531 -7.539062 L 5.933594 -7.792969 C 4.792969 -7.980469 4.296875 -8.289062 4.296875 -8.867188 C 4.296875 -9.53125 4.910156 -9.992188 5.847656 -9.992188 C 6.855469 -9.992188 7.621094 -9.378906 7.757812 -8.375 L 11.035156 -9.089844 C 10.742188 -11.253906 8.628906 -12.636719 5.933594 -12.636719 C 2.917969 -12.636719 0.664062 -11.101562 0.664062 -8.578125 C 0.664062 -6.496094 1.960938 -5.371094 4.929688 -4.859375 L 6.496094 -4.605469 C 7.726562 -4.367188 8.253906 -4.023438 8.253906 -3.445312 C 8.253906 -2.710938 7.488281 -2.21875 6.277344 -2.21875 C 4.910156 -2.21875 3.921875 -2.96875 3.734375 -4.210938 L 0.390625 -3.582031 C 0.664062 -0.871094 2.949219 0.425781 6.089844 0.425781 Z M 6.089844 0.425781 "/></g></g></g><g fill="#2a6672" fill-opacity="1"><g transform="translate(147.045097, 49.424043)"><g><path d="M 10.164062 0.273438 C 11.222656 0.273438 12.226562 -0.0664062 12.875 -0.613281 L 12.296875 -2.285156 C 12.109375 -2.113281 11.835938 -1.960938 11.5625 -1.960938 C 11.222656 -1.960938 11.015625 -2.234375 10.914062 -2.574219 L 10.605469 -3.617188 C 10.402344 -4.296875 10.113281 -4.722656 9.5 -4.945312 L 9.5 -4.960938 C 11.1875 -5.492188 12.160156 -6.71875 12.160156 -8.289062 C 12.160156 -10.777344 10.367188 -12.210938 7.28125 -12.210938 L 0.886719 -12.210938 L 0.886719 0 L 4.621094 0 L 4.621094 -4.332031 L 5.832031 -4.332031 C 6.480469 -4.332031 6.855469 -3.820312 7.042969 -3.1875 L 7.453125 -1.808594 C 7.84375 -0.511719 8.832031 0.273438 10.164062 0.273438 Z M 4.621094 -6.703125 L 4.621094 -9.566406 L 6.71875 -9.566406 C 7.777344 -9.566406 8.441406 -9.039062 8.441406 -8.132812 C 8.441406 -7.246094 7.777344 -6.703125 6.71875 -6.703125 Z M 4.621094 -6.703125 "/></g></g></g><g fill="#2a6672" fill-opacity="1"><g transform="translate(163.121769, 49.424043)"><g><path d="M 0.886719 0 L 9.773438 0 L 9.773438 -2.898438 L 4.484375 -2.898438 L 4.484375 -4.960938 L 8.917969 -4.960938 L 8.917969 -7.46875 L 4.484375 -7.46875 L 4.484375 -9.3125 L 9.601562 -9.3125 L 9.601562 -12.210938 L 0.886719 -12.210938 Z M 0.886719 0 "/></g></g></g><g fill="#2a6672" fill-opacity="1"><g transform="translate(176.334571, 49.424043)"><g><path d="M 6.089844 0.425781 C 9.449219 0.425781 11.851562 -1.058594 11.851562 -3.785156 C 11.851562 -5.953125 10.523438 -7.113281 7.519531 -7.539062 L 5.933594 -7.792969 C 4.792969 -7.980469 4.296875 -8.289062 4.296875 -8.867188 C 4.296875 -9.53125 4.910156 -9.992188 5.847656 -9.992188 C 6.855469 -9.992188 7.621094 -9.378906 7.757812 -8.375 L 11.035156 -9.089844 C 10.742188 -11.253906 8.628906 -12.636719 5.933594 -12.636719 C 2.917969 -12.636719 0.664062 -11.101562 0.664062 -8.578125 C 0.664062 -6.496094 1.960938 -5.371094 4.929688 -4.859375 L 6.496094 -4.605469 C 7.726562 -4.367188 8.253906 -4.023438 8.253906 -3.445312 C 8.253906 -2.710938 7.488281 -2.21875 6.277344 -2.21875 C 4.910156 -2.21875 3.921875 -2.96875 3.734375 -4.210938 L 0.390625 -3.582031 C 0.664062 -0.871094 2.949219 0.425781 6.089844 0.425781 Z M 6.089844 0.425781 "/></g></g></g><g fill="#2a6672" fill-opacity="1"><g transform="translate(191.456622, 49.424043)"><g><path d="M 6.566406 0.425781 C 10.214844 0.425781 12.347656 -1.5 12.347656 -4.773438 L 12.347656 -12.210938 L 8.613281 -12.210938 L 8.613281 -4.910156 C 8.613281 -3.5625 7.863281 -2.746094 6.566406 -2.746094 C 5.269531 -2.746094 4.503906 -3.597656 4.503906 -4.910156 L 4.503906 -12.210938 L 0.785156 -12.210938 L 0.785156 -4.773438 C 0.785156 -1.5 2.917969 0.425781 6.566406 0.425781 Z M 6.566406 0.425781 "/></g></g></g><g fill="#2a6672" fill-opacity="1"><g transform="translate(207.652617, 49.424043)"><g><path d="M 0.886719 0 L 4.230469 0 L 4.230469 -7.742188 L 4.261719 -7.742188 L 7.316406 0 L 10.148438 0 L 13.214844 -7.742188 L 13.25 -7.742188 L 13.25 0 L 16.574219 0 L 16.574219 -12.210938 L 11.902344 -12.210938 L 8.765625 -4.179688 L 8.730469 -4.179688 L 5.628906 -12.210938 L 0.886719 -12.210938 Z M 0.886719 0 "/></g></g></g><g fill="#2a6672" fill-opacity="1"><g transform="translate(228.178507, 49.424043)"><g><path d="M 0.886719 0 L 9.773438 0 L 9.773438 -2.898438 L 4.484375 -2.898438 L 4.484375 -4.960938 L 8.917969 -4.960938 L 8.917969 -7.46875 L 4.484375 -7.46875 L 4.484375 -9.3125 L 9.601562 -9.3125 L 9.601562 -12.210938 L 0.886719 -12.210938 Z M 0.886719 0 "/></g></g></g><g fill="#2a6672" fill-opacity="1"><g transform="translate(179.021986, 57.83863)"><g><path d="M 3.46875 -3 C 3.875 -2.914062 4.171875 -2.757812 4.359375 -2.53125 C 4.554688 -2.300781 4.65625 -2 4.65625 -1.625 C 4.65625 -0.519531 3.832031 0.03125 2.1875 0.03125 C 1.613281 0.03125 1.144531 0.0195312 0.78125 0 L 0.84375 -1.734375 L 0.78125 -5.78125 L 2.578125 -5.78125 C 3.128906 -5.78125 3.5625 -5.660156 3.875 -5.421875 C 4.1875 -5.179688 4.34375 -4.828125 4.34375 -4.359375 C 4.34375 -4.035156 4.265625 -3.757812 4.109375 -3.53125 C 3.960938 -3.300781 3.75 -3.125 3.46875 -3 Z M 3.390625 -4.25 C 3.390625 -4.539062 3.304688 -4.75 3.140625 -4.875 C 2.972656 -5 2.703125 -5.0625 2.328125 -5.0625 L 1.703125 -5.0625 L 1.6875 -3.296875 L 2.609375 -3.265625 C 2.867188 -3.328125 3.0625 -3.4375 3.1875 -3.59375 C 3.320312 -3.757812 3.390625 -3.976562 3.390625 -4.25 Z M 2.34375 -0.6875 C 2.78125 -0.6875 3.117188 -0.769531 3.359375 -0.9375 C 3.597656 -1.101562 3.71875 -1.347656 3.71875 -1.671875 C 3.71875 -2.191406 3.390625 -2.492188 2.734375 -2.578125 L 1.671875 -2.578125 L 1.671875 -1.8125 L 1.6875 -0.71875 C 1.925781 -0.695312 2.144531 -0.6875 2.34375 -0.6875 Z M 2.34375 -0.6875 "/></g></g></g><g fill="#2a6672" fill-opacity="1"><g transform="translate(184.008011, 57.83863)"><g><path d="M 4.46875 -0.640625 L 4.390625 -0.140625 C 4.191406 -0.0234375 3.992188 0.0390625 3.796875 0.0625 C 3.617188 0.03125 3.476562 -0.03125 3.375 -0.125 C 3.269531 -0.226562 3.1875 -0.378906 3.125 -0.578125 L 3.0625 -0.578125 C 2.707031 -0.253906 2.347656 -0.046875 1.984375 0.046875 C 1.535156 0.046875 1.191406 -0.0546875 0.953125 -0.265625 C 0.710938 -0.472656 0.597656 -0.769531 0.609375 -1.15625 L 0.625 -2.28125 L 0.578125 -4.09375 L 1.5 -4.171875 L 1.453125 -1.40625 C 1.441406 -1.1875 1.488281 -1.015625 1.59375 -0.890625 C 1.695312 -0.765625 1.851562 -0.703125 2.0625 -0.703125 C 2.382812 -0.703125 2.710938 -0.851562 3.046875 -1.15625 L 3.046875 -4.09375 L 3.921875 -4.171875 L 3.859375 -0.96875 C 3.859375 -0.851562 3.875 -0.773438 3.90625 -0.734375 C 3.945312 -0.691406 4.015625 -0.671875 4.109375 -0.671875 C 4.179688 -0.671875 4.273438 -0.679688 4.390625 -0.703125 Z M 4.46875 -0.640625 "/></g></g></g><g fill="#2a6672" fill-opacity="1"><g transform="translate(188.643034, 57.83863)"><g><path d="M 0.703125 -1.734375 L 0.671875 -4.09375 L 1.578125 -4.171875 L 1.53125 -1.8125 L 1.5625 0 L 0.671875 0 Z M 1.125 -6.078125 C 1.28125 -6.078125 1.398438 -6.035156 1.484375 -5.953125 C 1.566406 -5.867188 1.609375 -5.75 1.609375 -5.59375 C 1.609375 -5.425781 1.5625 -5.296875 1.46875 -5.203125 C 1.375 -5.109375 1.25 -5.0625 1.09375 -5.0625 C 0.9375 -5.0625 0.816406 -5.101562 0.734375 -5.1875 C 0.648438 -5.28125 0.609375 -5.40625 0.609375 -5.5625 C 0.609375 -5.71875 0.65625 -5.84375 0.75 -5.9375 C 0.84375 -6.03125 0.96875 -6.078125 1.125 -6.078125 Z M 1.125 -6.078125 "/></g></g></g><g fill="#2a6672" fill-opacity="1"><g transform="translate(190.893043, 57.83863)"><g><path d="M 1.53125 -1.828125 L 1.609375 0 L 0.6875 0 L 0.75 -1.75 L 0.6875 -6.25 L 1.609375 -6.3125 Z M 1.53125 -1.828125 "/></g></g></g><g fill="#2a6672" fill-opacity="1"><g transform="translate(193.179055, 57.83863)"><g><path d="M 3.90625 -1.828125 L 3.9375 -0.96875 C 3.9375 -0.851562 3.953125 -0.773438 3.984375 -0.734375 C 4.015625 -0.691406 4.078125 -0.671875 4.171875 -0.671875 C 4.234375 -0.671875 4.328125 -0.679688 4.453125 -0.703125 L 4.53125 -0.640625 L 4.4375 -0.140625 C 4.257812 -0.0234375 4.070312 0.0390625 3.875 0.0625 C 3.6875 0.0390625 3.53125 -0.0195312 3.40625 -0.125 C 3.289062 -0.238281 3.21875 -0.382812 3.1875 -0.5625 L 3.125 -0.5625 C 2.945312 -0.414062 2.789062 -0.296875 2.65625 -0.203125 C 2.519531 -0.109375 2.367188 -0.0234375 2.203125 0.046875 C 1.597656 0.046875 1.132812 -0.132812 0.8125 -0.5 C 0.488281 -0.863281 0.328125 -1.382812 0.328125 -2.0625 C 0.328125 -2.75 0.503906 -3.28125 0.859375 -3.65625 C 1.222656 -4.03125 1.726562 -4.21875 2.375 -4.21875 C 2.582031 -4.21875 2.816406 -4.195312 3.078125 -4.15625 L 3.0625 -6.25 L 3.96875 -6.3125 Z M 2.28125 -3.59375 C 1.9375 -3.59375 1.664062 -3.472656 1.46875 -3.234375 C 1.28125 -3.003906 1.1875 -2.660156 1.1875 -2.203125 C 1.1875 -1.710938 1.273438 -1.335938 1.453125 -1.078125 C 1.640625 -0.816406 1.894531 -0.6875 2.21875 -0.6875 C 2.363281 -0.6875 2.503906 -0.722656 2.640625 -0.796875 C 2.785156 -0.867188 2.9375 -0.992188 3.09375 -1.171875 L 3.109375 -1.75 L 3.078125 -3.390625 C 2.785156 -3.523438 2.519531 -3.59375 2.28125 -3.59375 Z M 2.28125 -3.59375 "/></g></g></g><g fill="#2a6672" fill-opacity="1"><g transform="translate(197.865715, 57.83863)"><g/></g></g><g fill="#2a6672" fill-opacity="1"><g transform="translate(199.305723, 57.83863)"><g/></g></g><g fill="#2a6672" fill-opacity="1"><g transform="translate(200.736805, 57.83863)"><g><path d="M 0.703125 -1.734375 L 0.671875 -4.09375 L 1.578125 -4.171875 L 1.53125 -1.8125 L 1.5625 0 L 0.671875 0 Z M 1.125 -6.078125 C 1.28125 -6.078125 1.398438 -6.035156 1.484375 -5.953125 C 1.566406 -5.867188 1.609375 -5.75 1.609375 -5.59375 C 1.609375 -5.425781 1.5625 -5.296875 1.46875 -5.203125 C 1.375 -5.109375 1.25 -5.0625 1.09375 -5.0625 C 0.9375 -5.0625 0.816406 -5.101562 0.734375 -5.1875 C 0.648438 -5.28125 0.609375 -5.40625 0.609375 -5.5625 C 0.609375 -5.71875 0.65625 -5.84375 0.75 -5.9375 C 0.84375 -6.03125 0.96875 -6.078125 1.125 -6.078125 Z M 1.125 -6.078125 "/></g></g></g><g fill="#2a6672" fill-opacity="1"><g transform="translate(202.986814, 57.83863)"><g><path d="M 3.234375 -2.734375 C 3.242188 -2.953125 3.191406 -3.125 3.078125 -3.25 C 2.972656 -3.382812 2.8125 -3.453125 2.59375 -3.453125 C 2.25 -3.453125 1.890625 -3.273438 1.515625 -2.921875 L 1.515625 -1.8125 L 1.5625 0 L 0.640625 0 L 0.703125 -1.734375 L 0.65625 -4.09375 L 1.53125 -4.171875 L 1.515625 -3.5625 L 1.578125 -3.5625 C 1.929688 -3.875 2.300781 -4.085938 2.6875 -4.203125 C 3.15625 -4.203125 3.503906 -4.097656 3.734375 -3.890625 C 3.972656 -3.679688 4.09375 -3.378906 4.09375 -2.984375 L 4.0625 -1.8125 L 4.109375 0 L 3.171875 0 Z M 3.234375 -2.734375 "/></g></g></g><g fill="#2a6672" fill-opacity="1"><g transform="translate(207.675842, 57.83863)"><g/></g></g><g fill="#2a6672" fill-opacity="1"><g transform="translate(209.115851, 57.83863)"><g><path d="M 2.46875 -5.84375 C 2.925781 -5.84375 3.378906 -5.742188 3.828125 -5.546875 L 3.6875 -4.703125 L 3.53125 -4.65625 C 3.34375 -4.789062 3.144531 -4.894531 2.9375 -4.96875 C 2.738281 -5.050781 2.546875 -5.09375 2.359375 -5.09375 C 2.066406 -5.09375 1.832031 -5.007812 1.65625 -4.84375 C 1.476562 -4.6875 1.390625 -4.5 1.390625 -4.28125 C 1.390625 -4.070312 1.476562 -3.898438 1.65625 -3.765625 C 1.832031 -3.628906 2.101562 -3.472656 2.46875 -3.296875 C 2.800781 -3.140625 3.066406 -3 3.265625 -2.875 C 3.460938 -2.75 3.632812 -2.582031 3.78125 -2.375 C 3.925781 -2.164062 4 -1.921875 4 -1.640625 C 4 -1.328125 3.910156 -1.039062 3.734375 -0.78125 C 3.566406 -0.519531 3.328125 -0.3125 3.015625 -0.15625 C 2.710938 0 2.363281 0.078125 1.96875 0.078125 C 1.695312 0.078125 1.421875 0.046875 1.140625 -0.015625 C 0.859375 -0.0859375 0.59375 -0.1875 0.34375 -0.3125 L 0.453125 -1.234375 L 0.578125 -1.28125 C 0.796875 -1.070312 1.035156 -0.914062 1.296875 -0.8125 C 1.566406 -0.707031 1.816406 -0.65625 2.046875 -0.65625 C 2.359375 -0.65625 2.609375 -0.738281 2.796875 -0.90625 C 2.984375 -1.070312 3.078125 -1.269531 3.078125 -1.5 C 3.078125 -1.726562 2.984375 -1.910156 2.796875 -2.046875 C 2.617188 -2.191406 2.347656 -2.347656 1.984375 -2.515625 C 1.660156 -2.671875 1.398438 -2.804688 1.203125 -2.921875 C 1.003906 -3.046875 0.832031 -3.207031 0.6875 -3.40625 C 0.550781 -3.613281 0.484375 -3.863281 0.484375 -4.15625 C 0.484375 -4.46875 0.566406 -4.753906 0.734375 -5.015625 C 0.898438 -5.273438 1.132812 -5.476562 1.4375 -5.625 C 1.738281 -5.769531 2.082031 -5.84375 2.46875 -5.84375 Z M 2.46875 -5.84375 "/></g></g></g><g fill="#2a6672" fill-opacity="1"><g transform="translate(213.462873, 57.83863)"><g><path d="M 3.703125 -2.03125 L 1.171875 -2.03125 C 1.171875 -1.570312 1.28125 -1.222656 1.5 -0.984375 C 1.71875 -0.742188 2.023438 -0.625 2.421875 -0.625 C 2.835938 -0.625 3.242188 -0.75 3.640625 -1 L 3.71875 -0.9375 L 3.59375 -0.203125 C 3.15625 -0.015625 2.726562 0.078125 2.3125 0.078125 C 1.695312 0.078125 1.210938 -0.109375 0.859375 -0.484375 C 0.503906 -0.867188 0.328125 -1.390625 0.328125 -2.046875 C 0.328125 -2.710938 0.5 -3.238281 0.84375 -3.625 C 1.195312 -4.019531 1.671875 -4.21875 2.265625 -4.21875 C 2.773438 -4.21875 3.164062 -4.078125 3.4375 -3.796875 C 3.707031 -3.523438 3.84375 -3.140625 3.84375 -2.640625 C 3.84375 -2.503906 3.828125 -2.335938 3.796875 -2.140625 Z M 3.015625 -2.75 C 3.015625 -3.03125 2.945312 -3.238281 2.8125 -3.375 C 2.6875 -3.519531 2.503906 -3.59375 2.265625 -3.59375 C 1.984375 -3.59375 1.753906 -3.503906 1.578125 -3.328125 C 1.398438 -3.148438 1.28125 -2.898438 1.21875 -2.578125 L 3 -2.625 Z M 3.015625 -2.75 "/></g></g></g><g fill="#2a6672" fill-opacity="1"><g transform="translate(217.647892, 57.83863)"><g><path d="M 2.234375 -4.234375 C 2.421875 -4.234375 2.613281 -4.210938 2.8125 -4.171875 C 3.007812 -4.128906 3.1875 -4.070312 3.34375 -4 L 3.1875 -3.234375 L 3.09375 -3.1875 C 2.78125 -3.375 2.488281 -3.46875 2.21875 -3.46875 C 1.894531 -3.46875 1.644531 -3.347656 1.46875 -3.109375 C 1.289062 -2.867188 1.203125 -2.535156 1.203125 -2.109375 C 1.203125 -1.640625 1.289062 -1.273438 1.46875 -1.015625 C 1.65625 -0.765625 1.921875 -0.640625 2.265625 -0.640625 C 2.566406 -0.640625 2.890625 -0.734375 3.234375 -0.921875 L 3.3125 -0.859375 L 3.21875 -0.125 C 2.851562 0.0078125 2.488281 0.078125 2.125 0.078125 C 1.5625 0.078125 1.117188 -0.109375 0.796875 -0.484375 C 0.484375 -0.859375 0.328125 -1.375 0.328125 -2.03125 C 0.328125 -2.71875 0.492188 -3.253906 0.828125 -3.640625 C 1.171875 -4.035156 1.640625 -4.234375 2.234375 -4.234375 Z M 2.234375 -4.234375 "/></g></g></g><g fill="#2a6672" fill-opacity="1"><g transform="translate(221.112908, 57.83863)"><g><path d="M 2.265625 -4.234375 C 2.847656 -4.234375 3.296875 -4.050781 3.609375 -3.6875 C 3.929688 -3.320312 4.09375 -2.804688 4.09375 -2.140625 C 4.09375 -1.429688 3.921875 -0.882812 3.578125 -0.5 C 3.242188 -0.113281 2.769531 0.078125 2.15625 0.078125 C 1.570312 0.078125 1.117188 -0.101562 0.796875 -0.46875 C 0.484375 -0.832031 0.328125 -1.34375 0.328125 -2 C 0.328125 -2.71875 0.492188 -3.269531 0.828125 -3.65625 C 1.171875 -4.039062 1.648438 -4.234375 2.265625 -4.234375 Z M 2.21875 -3.59375 C 1.53125 -3.59375 1.1875 -3.128906 1.1875 -2.203125 C 1.1875 -1.640625 1.269531 -1.222656 1.4375 -0.953125 C 1.601562 -0.679688 1.863281 -0.546875 2.21875 -0.546875 C 2.5625 -0.546875 2.816406 -0.660156 2.984375 -0.890625 C 3.148438 -1.117188 3.234375 -1.46875 3.234375 -1.9375 C 3.234375 -2.5 3.148438 -2.914062 2.984375 -3.1875 C 2.816406 -3.457031 2.5625 -3.59375 2.21875 -3.59375 Z M 2.21875 -3.59375 "/></g></g></g><g fill="#2a6672" fill-opacity="1"><g transform="translate(225.540931, 57.83863)"><g><path d="M 3.234375 -2.734375 C 3.242188 -2.953125 3.191406 -3.125 3.078125 -3.25 C 2.972656 -3.382812 2.8125 -3.453125 2.59375 -3.453125 C 2.25 -3.453125 1.890625 -3.273438 1.515625 -2.921875 L 1.515625 -1.8125 L 1.5625 0 L 0.640625 0 L 0.703125 -1.734375 L 0.65625 -4.09375 L 1.53125 -4.171875 L 1.515625 -3.5625 L 1.578125 -3.5625 C 1.929688 -3.875 2.300781 -4.085938 2.6875 -4.203125 C 3.15625 -4.203125 3.503906 -4.097656 3.734375 -3.890625 C 3.972656 -3.679688 4.09375 -3.378906 4.09375 -2.984375 L 4.0625 -1.8125 L 4.109375 0 L 3.171875 0 Z M 3.234375 -2.734375 "/></g></g></g><g fill="#2a6672" fill-opacity="1"><g transform="translate(230.229959, 57.83863)"><g><path d="M 3.90625 -1.828125 L 3.9375 -0.96875 C 3.9375 -0.851562 3.953125 -0.773438 3.984375 -0.734375 C 4.015625 -0.691406 4.078125 -0.671875 4.171875 -0.671875 C 4.234375 -0.671875 4.328125 -0.679688 4.453125 -0.703125 L 4.53125 -0.640625 L 4.4375 -0.140625 C 4.257812 -0.0234375 4.070312 0.0390625 3.875 0.0625 C 3.6875 0.0390625 3.53125 -0.0195312 3.40625 -0.125 C 3.289062 -0.238281 3.21875 -0.382812 3.1875 -0.5625 L 3.125 -0.5625 C 2.945312 -0.414062 2.789062 -0.296875 2.65625 -0.203125 C 2.519531 -0.109375 2.367188 -0.0234375 2.203125 0.046875 C 1.597656 0.046875 1.132812 -0.132812 0.8125 -0.5 C 0.488281 -0.863281 0.328125 -1.382812 0.328125 -2.0625 C 0.328125 -2.75 0.503906 -3.28125 0.859375 -3.65625 C 1.222656 -4.03125 1.726562 -4.21875 2.375 -4.21875 C 2.582031 -4.21875 2.816406 -4.195312 3.078125 -4.15625 L 3.0625 -6.25 L 3.96875 -6.3125 Z M 2.28125 -3.59375 C 1.9375 -3.59375 1.664062 -3.472656 1.46875 -3.234375 C 1.28125 -3.003906 1.1875 -2.660156 1.1875 -2.203125 C 1.1875 -1.710938 1.273438 -1.335938 1.453125 -1.078125 C 1.640625 -0.816406 1.894531 -0.6875 2.21875 -0.6875 C 2.363281 -0.6875 2.503906 -0.722656 2.640625 -0.796875 C 2.785156 -0.867188 2.9375 -0.992188 3.09375 -1.171875 L 3.109375 -1.75 L 3.078125 -3.390625 C 2.785156 -3.523438 2.519531 -3.59375 2.28125 -3.59375 Z M 2.28125 -3.59375 "/></g></g></g><g fill="#2a6672" fill-opacity="1"><g transform="translate(234.918987, 57.83863)"><g><path d="M 1.890625 -4.21875 C 2.253906 -4.21875 2.601562 -4.148438 2.9375 -4.015625 L 2.8125 -3.296875 L 2.703125 -3.265625 C 2.390625 -3.472656 2.082031 -3.578125 1.78125 -3.578125 C 1.601562 -3.578125 1.460938 -3.53125 1.359375 -3.4375 C 1.253906 -3.34375 1.203125 -3.226562 1.203125 -3.09375 C 1.203125 -2.9375 1.257812 -2.8125 1.375 -2.71875 C 1.5 -2.632812 1.691406 -2.539062 1.953125 -2.4375 C 2.179688 -2.332031 2.367188 -2.234375 2.515625 -2.140625 C 2.671875 -2.046875 2.800781 -1.925781 2.90625 -1.78125 C 3.007812 -1.632812 3.0625 -1.445312 3.0625 -1.21875 C 3.0625 -0.988281 3 -0.773438 2.875 -0.578125 C 2.757812 -0.378906 2.582031 -0.21875 2.34375 -0.09375 C 2.113281 0.0195312 1.832031 0.078125 1.5 0.078125 C 1.082031 0.078125 0.664062 -0.015625 0.25 -0.203125 L 0.34375 -0.96875 L 0.453125 -1.03125 C 0.628906 -0.875 0.820312 -0.753906 1.03125 -0.671875 C 1.238281 -0.585938 1.429688 -0.546875 1.609375 -0.546875 C 1.796875 -0.546875 1.945312 -0.597656 2.0625 -0.703125 C 2.175781 -0.804688 2.234375 -0.929688 2.234375 -1.078125 C 2.234375 -1.222656 2.171875 -1.335938 2.046875 -1.421875 C 1.929688 -1.515625 1.75 -1.617188 1.5 -1.734375 C 1.257812 -1.835938 1.0625 -1.929688 0.90625 -2.015625 C 0.757812 -2.109375 0.632812 -2.234375 0.53125 -2.390625 C 0.425781 -2.546875 0.375 -2.738281 0.375 -2.96875 C 0.375 -3.332031 0.507812 -3.628906 0.78125 -3.859375 C 1.050781 -4.097656 1.421875 -4.21875 1.890625 -4.21875 Z M 1.890625 -4.21875 "/></g></g></g></svg>